<svg xmlns="http://www.w3.org/2000/svg" version="1.1" xmlns:xlink="http://www.w3.org/1999/xlink" xmlns:svgjs="http://svgjs.com/svgjs" width="1440" height="560" preserveAspectRatio="none" viewBox="0 0 1440 560"><g mask="url(&quot;#SvgjsMask1000&quot;)" fill="none"><rect width="1440" height="560" x="0" y="0" fill="#0e2a47"></rect><path d="M1241.31 120.58 a40.55 40.55 0 1 0 81.1 0 a40.55 40.55 0 1 0 -81.1 0z" stroke="#e73635"></path><path d="M234.81 451.24 a5.03 5.03 0 1 0 10.06 0 a5.03 5.03 0 1 0 -10.06 0z" stroke="#d3b714"></path><path d="M479.97 98.28 a8.23 8.23 0 1 0 16.46 0 a8.23 8.23 0 1 0 -16.46 0z" stroke="#037b0b"></path><path d="M547.57 289.66L563.28 289.66L563.28 305.37L547.57 305.37z" fill="#037b0b"></path><path d="M485.85 207.61L520 207.61L520 241.76L485.85 241.76z" fill="#d3b714"></path><path d="M1111.07 558.93a46.27 46.27 0 1 0-67.32-63.49z" fill="#037b0b"></path><path d="M506.65 469.75L532.49 469.75L532.49 495.59L506.65 495.59z" fill="#e73635"></path><path d="M786.2 460.92L799.42 460.92L799.42 499.97L786.2 499.97z" fill="#037b0b"></path><path d="M1216.33 313.4a55.14 55.14 0 1 0-39.72 102.88z" stroke="#e73635"></path><path d="M864.66 413.89a3.49 3.49 0 1 0 6.76 1.74z" stroke="#e73635"></path><path d="M680.17 53.19L718.47 53.19L718.47 103.98L680.17 103.98z" fill="#037b0b"></path><path d="M109.81 373.91a8.6 8.6 0 1 0 15.88-6.61z" fill="#e73635"></path><path d="M633.95 353.19L647.03 353.19L647.03 395.84L633.95 395.84z" stroke="#037b0b"></path><path d="M1274.55 64.99L1298.49 64.99L1298.49 119.55L1274.55 119.55z" stroke="#e73635"></path><path d="M987.39 228.16L1016.15 228.16L1016.15 256.92L987.39 256.92z" fill="#e73635"></path><path d="M1033.01 547.26L1053.03 547.26L1053.03 553.82L1033.01 553.82z" fill="#e73635"></path><path d="M97.9 460.63L121.84 460.63L121.84 499.75L97.9 499.75z" stroke="#e73635"></path><path d="M170.42 490.46a15.46 15.46 0 1 0-9.74 29.34z" fill="#037b0b"></path><path d="M719.3 25.96a4.25 4.25 0 1 0-8.49-0.44z" stroke="#e73635"></path><path d="M1054.39 171.77a14.86 14.86 0 1 0-23.77 17.84z" fill="#037b0b"></path><path d="M1128.57 144.43 a32.33 32.33 0 1 0 64.66 0 a32.33 32.33 0 1 0 -64.66 0z" fill="#d3b714"></path><path d="M498.01 435.83L500.26 435.83L500.26 452.17L498.01 452.17z" stroke="#d3b714"></path><path d="M652.87 388.96 a42.95 42.95 0 1 0 85.9 0 a42.95 42.95 0 1 0 -85.9 0z" fill="#e73635"></path><path d="M285.67 97.33a45.72 45.72 0 1 0 69.86 59.01z" stroke="#e73635"></path><path d="M41.97 384.11L83.41 384.11L83.41 434.56L41.97 434.56z" stroke="#d3b714"></path><path d="M533.98 91.2 a12.23 12.23 0 1 0 24.46 0 a12.23 12.23 0 1 0 -24.46 0z" fill="#d3b714"></path><path d="M10.29 280.07L34.23 280.07L34.23 304.01L10.29 304.01z" stroke="#d3b714"></path><path d="M225.14 401.71a2.09 2.09 0 1 0-2.39-3.42z" stroke="#037b0b"></path><path d="M473.87 497.05L481.08 497.05L481.08 520.51L473.87 520.51z" stroke="#037b0b"></path><path d="M512.27 398.75a16.37 16.37 0 1 0 26.18-19.65z" fill="#e73635"></path><path d="M1364.35 316.29a31 31 0 1 0-44.7 42.96z" stroke="#d3b714"></path><path d="M786.71 421.79L812.17 421.79L812.17 471.58L786.71 471.58z" stroke="#e73635"></path><path d="M675.08 42.87L676.48 42.87L676.48 45.36L675.08 45.36z" stroke="#d3b714"></path></g><defs><mask id="SvgjsMask1000"><rect width="1440" height="560" fill="#ffffff"></rect></mask></defs></svg>