<svg xmlns="http://www.w3.org/2000/svg" version="1.1" xmlns:xlink="http://www.w3.org/1999/xlink" xmlns:svgjs="http://svgjs.com/svgjs" width="1440" height="768" preserveAspectRatio="none" viewBox="0 0 1440 768"><g mask="url(&quot;#SvgjsMask1018&quot;)" fill="none"><rect width="1440" height="768" x="0" y="0" fill="#0e2a47"></rect><path d="M31 768L799 0L907 0L139 768z" fill="url(#SvgjsLinearGradient1019)"></path><path d="M539.2 768L1307.2 0L1719.7 0L951.7 768z" fill="url(#SvgjsLinearGradient1019)"></path><path d="M1417 768L649 0L130 0L898 768z" fill="url(#SvgjsLinearGradient1020)"></path><path d="M946.8 768L178.79999999999995 0L-266.70000000000005 0L501.29999999999995 768z" fill="url(#SvgjsLinearGradient1020)"></path><path d="M759.0489123296732 768L1440 87.04891232967316L1440 768z" fill="url(#SvgjsLinearGradient1019)"></path><path d="M0 768L680.9510876703268 768L 0 87.04891232967316z" fill="url(#SvgjsLinearGradient1020)"></path></g><defs><mask id="SvgjsMask1018"><rect width="1440" height="768" fill="#ffffff"></rect></mask><linearGradient x1="0%" y1="100%" x2="100%" y2="0%" id="SvgjsLinearGradient1019"><stop stop-color="rgba(15, 70, 185, 0.2)" offset="0"></stop><stop stop-opacity="0" stop-color="rgba(15, 70, 185, 0.2)" offset="0.66"></stop></linearGradient><linearGradient x1="100%" y1="100%" x2="0%" y2="0%" id="SvgjsLinearGradient1020"><stop stop-color="rgba(15, 70, 185, 0.2)" offset="0"></stop><stop stop-opacity="0" stop-color="rgba(15, 70, 185, 0.2)" offset="0.66"></stop></linearGradient></defs></svg>