<svg xmlns="http://www.w3.org/2000/svg" version="1.1" xmlns:xlink="http://www.w3.org/1999/xlink" xmlns:svgjs="http://svgjs.com/svgjs" width="1440" height="560" preserveAspectRatio="none" viewBox="0 0 1440 560"><g mask="url(&quot;#SvgjsMask1000&quot;)" fill="none"><rect width="1440" height="560" x="0" y="0" fill="#0e2a47"></rect><path d="M -755.0113046601347,401 C -659.01,366 -467.01,222.6 -275.01130466013467,226 C -83.01,229.4 12.99,425 204.98869533986533,418 C 396.99,411 492.99,212.6 684.9886953398653,191 C 876.99,169.4 1013.99,329.6 1164.9886953398654,310 C 1315.99,290.4 1385,136.4 1440,93" stroke="rgba(51, 121, 194, 0.58)" stroke-width="2"></path><path d="M -91.85802101558147,415 C 4.14,378.8 196.14,240.8 388.14197898441853,234 C 580.14,227.2 676.14,384 868.1419789844185,381 C 1060.14,378 1156.14,233.4 1348.1419789844185,219 C 1540.14,204.6 1809.77,319.4 1828.1419789844185,309 C 1846.51,298.6 1517.63,195.4 1440,167" stroke="rgba(51, 121, 194, 0.58)" stroke-width="2"></path><path d="M -428.7790763742479,268 C -332.78,271.2 -140.78,289 51.22092362575213,284 C 243.22,279 339.22,239.8 531.2209236257521,243 C 723.22,246.2 819.22,306.6 1011.2209236257521,300 C 1203.22,293.4 1405.47,170 1491.2209236257522,210 C 1576.98,250 1450.24,442 1440,500" stroke="rgba(51, 121, 194, 0.58)" stroke-width="2"></path><path d="M -929.0714382716749,320 C -833.07,270.8 -641.07,68.6 -449.0714382716748,74 C -257.07,79.4 -161.07,307.4 30.928561728325178,347 C 222.93,386.6 318.93,244.2 510.9285617283252,272 C 702.93,299.8 805.11,497 990.9285617283251,486 C 1176.74,475 1350.19,270.8 1440,217" stroke="rgba(51, 121, 194, 0.58)" stroke-width="2"></path></g><defs><mask id="SvgjsMask1000"><rect width="1440" height="560" fill="#ffffff"></rect></mask></defs></svg>